HIERARCHY
ROOT Pelvis
{
	OFFSET 0.000000 0.000000 0.000000
	CHANNELS 6 Xposition Yposition Zposition Xrotation Yrotation Zrotation
	JOINT LeftUpLeg_virtual
	{
		OFFSET 0.000000 0.000000 0.000000
		CHANNELS 3 Xrotation Yrotation Zrotation
		JOINT LeftUpLeg
		{
			OFFSET 18.735201 -5.666702 -4.541200
			CHANNELS 3 Xrotation Yrotation Zrotation
			JOINT LeftLeg
			{
				OFFSET -0.021200 -31.938179 0.493100
				CHANNELS 3 Xrotation Yrotation Zrotation
				JOINT LeftFoot
				{
					OFFSET 0.021200 -31.938179 -4.336299
					CHANNELS 3 Xrotation Yrotation Zrotation
					JOINT LeftToeBase
					{
						OFFSET 0.943001 -26.722000 15.023500
						CHANNELS 3 Xrotation Yrotation Zrotation
						End Site
						{
							OFFSET 0 0 0
						}
					}
				}
			}
		}
	}
	JOINT RightUpLeg_virtual
	{
		OFFSET 0.000000 0.000000 0.000000
		CHANNELS 3 Xrotation Yrotation Zrotation
		JOINT RightUpLeg
		{
			OFFSET -18.735201 -5.666702 -4.541200
			CHANNELS 3 Xrotation Yrotation Zrotation
			JOINT RightLeg
			{
				OFFSET 0.018946 -31.938133 0.493100
				CHANNELS 3 Xrotation Yrotation Zrotation
				JOINT RightFoot
				{
					OFFSET -0.018946 -31.938126 -4.336299
					CHANNELS 3 Xrotation Yrotation Zrotation
					JOINT RightToeBase
					{
						OFFSET -0.943001 -26.722004 15.023500
						CHANNELS 3 Xrotation Yrotation Zrotation
						End Site
						{
							OFFSET 0 0 0
						}
					}
				}
			}
		}
	}
	JOINT Hips_virtual
	{
		OFFSET 0.000000 0.000000 0.000000
		CHANNELS 3 Xrotation Yrotation Zrotation
		JOINT Hips
		{
			OFFSET -0.000000 -0.000000 -0.000000
			CHANNELS 3 Xrotation Yrotation Zrotation
			JOINT Spine
			{
				OFFSET 0.000000 10.199997 -0.299500
				CHANNELS 3 Xrotation Yrotation Zrotation
				JOINT Spine1
				{
					OFFSET 0.000000 11.900002 -1.516600
					CHANNELS 3 Xrotation Yrotation Zrotation
					JOINT Spine2
					{
						OFFSET 0.000000 13.600006 -2.842500
						CHANNELS 3 Xrotation Yrotation Zrotation
						JOINT Neck_virtual
						{
							OFFSET 0.000000 0.000000 0.000000
							CHANNELS 3 Xrotation Yrotation Zrotation
							JOINT Neck
							{
								OFFSET 0.000000 9.624100 -2.890100
								CHANNELS 3 Xrotation Yrotation Zrotation
								JOINT Head
								{
									OFFSET 0.000000 14.068802 -1.351900
									CHANNELS 3 Xrotation Yrotation Zrotation
									End Site
									{
										OFFSET 0 0 0
									}
								}
							}
						}
						JOINT LeftShoulder_virtual
						{
							OFFSET 0.000000 0.000000 0.000000
							CHANNELS 3 Xrotation Yrotation Zrotation
							JOINT LeftShoulder
							{
								OFFSET 15.263000 10.923401 -0.547700
								CHANNELS 3 Xrotation Yrotation Zrotation
								JOINT LeftArm
								{
									OFFSET 25.438599 -2.830597 -13.032500
									CHANNELS 3 Xrotation Yrotation Zrotation
									JOINT LeftForeArm
									{
										OFFSET 29.960503 0.000000 0.000000
										CHANNELS 3 Xrotation Yrotation Zrotation
										JOINT LeftHand
										{
											OFFSET 27.849251 0.000000 0.000000
											CHANNELS 3 Xrotation Yrotation Zrotation
											End Site
											{
												OFFSET 0 0 0
											}
										}
									}
								}
							}
						}
						JOINT RightShoulder_virtual
						{
							OFFSET 0.000000 0.000000 0.000000
							CHANNELS 3 Xrotation Yrotation Zrotation
							JOINT RightShoulder
							{
								OFFSET -15.263000 10.923401 -0.547700
								CHANNELS 3 Xrotation Yrotation Zrotation
								JOINT RightArm
								{
									OFFSET -25.438599 -2.830597 -13.032500
									CHANNELS 3 Xrotation Yrotation Zrotation
									JOINT RightForeArm
									{
										OFFSET -29.960503 0.000000 0.000000
										CHANNELS 3 Xrotation Yrotation Zrotation
										JOINT RightHand
										{
											OFFSET -27.849251 0.000000 0.000000
											CHANNELS 3 Xrotation Yrotation Zrotation
											End Site
											{
												OFFSET 0 0 0
											}
										}
									}
								}
							}
						}
					}
				}
			}
		}
	}
}
MOTION
Frames: 5
Frame Time: 0.03333333
-228.565277 92.576172 -12.625378 0.000000 0.000000 0.000000 7.863251 -1.697199 -1.313100 -31.355544 11.015048 15.687240 33.506920 -9.874430 0.827614 -15.700202 -9.742021 -10.144608 0.000000 0.000000 0.000000 10.620639 10.994232 1.871058 -13.763400 -3.116288 -10.400488 27.486829 0.988138 -0.030196 -20.045589 -3.235313 11.175324 0.000000 0.000000 0.000000 2.940246 -2.088679 1.366992 1.803788 0.132839 2.496507 3.527457 -0.416731 -0.249937 -0.276374 0.009163 0.586313 0.000000 0.000000 0.000000 5.243105 0.467470 -0.119137 0.057623 -0.290730 0.044751 0.000000 0.000000 0.000000 2.817677 0.772831 -0.810300 1.162763 -4.122706 -12.604404 11.555663 -8.735563 -57.145112 6.781597 -40.162011 -2.878902 0.000000 0.000000 0.000000 5.209788 0.456901 -0.264558 2.590583 5.437374 7.570822 8.041948 -7.286000 50.264588 4.522438 26.254235 1.580844 0.000000 0.000000 0.000000 
-228.477417 92.622772 -12.817795 0.000000 0.000000 0.000000 7.845622 -1.792965 -1.278123 -31.384484 10.977465 15.715797 33.487349 -9.853829 0.847861 -15.703466 -9.734520 -10.101516 0.000000 0.000000 0.000000 10.608501 10.959992 1.817918 -13.802887 -3.115328 -10.471587 27.455981 0.993214 0.009478 -20.084730 -3.256642 11.241314 0.000000 0.000000 0.000000 2.940351 -2.119505 1.383107 1.775294 0.089800 2.593652 3.484915 -0.380821 -0.296868 -0.312536 0.025221 0.568037 0.000000 0.000000 0.000000 5.209192 0.469541 -0.170166 0.035855 -0.278465 0.027020 0.000000 0.000000 0.000000 2.792147 0.813635 -0.832035 1.173731 -3.900887 -12.609795 11.346212 -9.383519 -57.134027 6.833251 -40.983020 -2.815878 0.000000 0.000000 0.000000 5.144363 0.449591 -0.270028 2.543999 5.343015 7.582482 8.054893 -6.924398 49.909968 4.603108 26.939581 1.441563 0.000000 0.000000 0.000000 
-228.357590 92.684135 -13.022022 0.000000 0.000000 0.000000 7.815563 -1.898415 -1.249493 -31.431182 10.937129 15.737927 33.485962 -9.826435 0.870692 -15.690751 -9.723134 -10.051932 0.000000 0.000000 0.000000 10.582206 10.930782 1.761612 -13.866780 -3.110376 -10.548736 27.437068 0.993920 0.043117 -20.118110 -3.278610 11.295258 0.000000 0.000000 0.000000 2.936978 -2.132971 1.401067 1.712685 0.059664 2.705931 3.447852 -0.329191 -0.346916 -0.345818 0.050125 0.547891 0.000000 0.000000 0.000000 5.167112 0.476565 -0.220001 0.009742 -0.264017 0.011922 0.000000 0.000000 0.000000 2.763178 0.863388 -0.844946 1.187998 -3.644936 -12.565794 11.035425 -10.136354 -57.126739 6.876401 -42.007111 -2.734977 0.000000 0.000000 0.000000 5.056109 0.444296 -0.287127 2.476986 5.242635 7.554613 8.015692 -6.506922 49.505682 4.682331 27.764968 1.277839 0.000000 0.000000 0.000000 
-228.207932 92.755516 -13.246761 0.000000 0.000000 0.000000 7.774191 -2.012097 -1.227504 -31.495443 10.894821 15.754029 33.509919 -9.791312 0.892376 -15.656896 -9.705228 -10.001532 0.000000 0.000000 0.000000 10.540969 10.910353 1.704730 -13.955871 -3.100715 -10.628687 27.425511 0.990864 0.070676 -20.149309 -3.300884 11.337191 0.000000 0.000000 0.000000 2.927449 -2.126747 1.418747 1.614807 0.045065 2.824577 3.407538 -0.261537 -0.398748 -0.380426 0.084524 0.526553 0.000000 0.000000 0.000000 5.121857 0.490226 -0.270202 -0.018534 -0.246658 -0.001090 0.000000 0.000000 0.000000 2.731846 0.922700 -0.844877 1.205683 -3.355780 -12.454527 10.591076 -10.981127 -57.119585 6.901315 -43.251647 -2.630861 0.000000 0.000000 0.000000 4.947845 0.443923 -0.316764 2.391618 5.146282 7.483804 7.914611 -6.007031 49.068660 4.759295 28.771632 1.096682 0.000000 0.000000 0.000000 
-228.025406 92.833870 -13.474888 0.000000 0.000000 0.000000 7.724912 -2.132546 -1.217093 -31.571668 10.853333 15.758343 33.563645 -9.750234 0.909784 -15.597763 -9.681435 -9.956561 0.000000 0.000000 0.000000 10.478829 10.897899 1.648653 -14.076425 -3.085591 -10.709731 27.412793 0.983550 0.093960 -20.182953 -3.325217 11.369293 0.000000 0.000000 0.000000 2.914683 -2.098862 1.434556 1.497404 0.048351 2.943604 3.359788 -0.179065 -0.452603 -0.418290 0.128208 0.503325 0.000000 0.000000 0.000000 5.074328 0.510737 -0.318551 -0.048296 -0.226237 -0.010672 0.000000 0.000000 0.000000 2.698141 0.992291 -0.830985 1.226472 -3.032652 -12.271240 9.991721 -11.908990 -57.114745 6.899595 -44.710620 -2.505322 0.000000 0.000000 0.000000 4.824287 0.450785 -0.360924 2.291971 5.066507 7.361173 7.735090 -5.397487 48.598804 4.834730 29.998563 0.896048 0.000000 0.000000 0.000000 
